<svg width="2243" height="812" viewBox="0 0 2243 812" fill="none" xmlns="http://www.w3.org/2000/svg">
<path d="M0.00170898 589.824V222.167H154.536V476.592H456.759V589.824H0.00170898Z" fill="#020202"/>
<path d="M1759.66 589.824H1589.23L1527.97 489.933H1388.99V589.824H1234.45V222.167H1587.72C1647.47 222.167 1689.7 232.725 1714.41 253.84C1739.12 274.955 1751.54 306.627 1751.54 348.857C1751.54 391.087 1744.81 401.065 1731.24 419.976C1717.66 438.886 1700.26 451.88 1678.91 459.073L1759.78 589.824H1759.66ZM1540.39 395.612C1554.43 395.612 1564.52 393.176 1570.55 388.187C1576.59 383.198 1579.6 375.425 1579.6 364.752C1579.6 354.078 1576.7 345.725 1570.9 340.504C1565.1 335.399 1554.89 332.731 1540.5 332.731H1389.1V395.612H1540.5H1540.39Z" fill="#020202"/>
<path d="M1936.34 362.199H2226.26V447.123H1936.34V497.591H2242.74V589.824H1781.8V222.167H2239.6V315.909H1936.34V362.199Z" fill="#020202"/>
<path d="M1083.75 405.942C1095.47 395.733 1105.56 386.335 1114.61 377.518C1188.97 304.427 1219.02 240.85 1197.21 202.913C1175.4 165.092 1105.21 159.291 1004.74 187.135L996.504 189.455L1003.35 194.56C1048.25 227.973 1072.49 271.247 1075.16 276.352C1085.95 294.914 1071.45 327.747 1035.6 366.612C998.128 338.072 957.522 311.04 914.596 286.329C871.786 261.617 828.047 239.922 784.541 221.708C800.319 171.24 821.435 142.352 843.246 142.352C848.815 142.352 898.354 141.656 949.633 163.699L957.522 167.064L955.434 158.827C929.33 57.8922 889.304 0 845.566 0C801.828 0 761.802 57.8922 735.698 158.827C732.566 171.008 729.549 184.466 726.533 199.665C711.915 194.676 698.805 190.615 686.507 187.135C586.037 159.291 515.847 164.976 494.036 202.913C472.225 240.734 502.273 304.427 576.64 377.518L582.788 383.551L583.833 375.082C590.329 319.626 615.737 276.932 618.754 271.943C629.543 253.38 665.16 249.436 716.788 261.037C710.755 307.792 707.738 356.519 707.738 405.942C707.738 455.365 710.755 504.092 716.788 550.847C665.16 562.448 629.543 558.504 618.637 539.709C615.737 535.068 590.446 492.258 583.949 436.918L582.904 428.449L576.756 434.482C502.389 507.573 472.341 571.15 494.152 609.087C515.963 646.908 586.153 652.709 686.623 624.865C698.805 621.501 711.915 617.44 726.649 612.335C729.665 627.65 732.682 641.108 735.814 653.173C761.918 754.108 801.944 812 845.682 812C889.42 812 929.446 754.108 955.55 653.173L957.638 644.936L949.749 648.301C898.354 670.46 848.814 669.764 843.014 669.648C821.551 669.648 800.319 640.76 784.541 590.292C828.047 572.078 871.786 550.383 914.596 525.671C957.406 500.96 998.128 473.928 1035.6 445.388C1071.45 484.253 1085.84 517.086 1075.05 535.881C1072.38 540.753 1048.13 583.911 1003.35 617.44L996.504 622.545L1004.74 624.865C1105.21 652.709 1175.4 647.024 1197.21 609.087C1219.02 571.266 1188.97 507.573 1114.61 434.482C1105.68 425.665 1095.47 416.267 1083.75 406.058V405.942ZM994.067 405.942C963.439 431.814 926.894 457.221 888.028 479.729C849.163 502.12 808.905 521.146 771.199 534.604C764.122 495.159 760.294 450.84 760.294 405.942C760.294 361.044 764.006 316.725 771.199 277.28C808.905 290.854 849.279 309.764 888.028 332.155C926.894 354.547 963.439 380.07 994.067 405.942Z" fill="#020202"/>
</svg>
